<svg xmlns="http://www.w3.org/2000/svg" xmlns:xlink="http://www.w3.org/1999/xlink" width="1517" height="371" viewBox="0 0 1517 371">
  <defs>
    <clipPath id="clip-path">
      <rect id="Rectangle_217" data-name="Rectangle 217" width="1517" height="371" transform="translate(4636 573)" fill="#fff" stroke="#707070" stroke-width="1"/>
    </clipPath>
  </defs>
  <g id="Groupe_de_masques_73" data-name="Groupe de masques 73" transform="translate(-4636 -573)" clip-path="url(#clip-path)">
    <g id="logo" transform="translate(4633.208 625.716)">
      <path id="Tracé_3" data-name="Tracé 3" d="M108.07,61.714q37.978,0,55.85,15.359,18.151,15.359,18.151,40.212A89.31,89.31,0,0,1,179.838,136a94.956,94.956,0,0,1-19.827,40.212,99.837,99.837,0,0,1-35.744,26.529,111.76,111.76,0,0,1-45.518,9.215q-38.816,0-57.526-15.359Q2.792,180.955,2.792,155.264A94.3,94.3,0,0,1,5.026,136,89.278,89.278,0,0,1,25.133,97.459a101.645,101.645,0,0,1,36.582-26.25A114.743,114.743,0,0,1,108.07,61.714Zm-.838,24.853q-5.864,0-12.566,10.612-6.423,10.332-15.359,39.374t-8.936,40.771q0,6.144,1.955,8.378a7.169,7.169,0,0,0,5.306,1.955q5.864.558,12.008-10.053,6.423-10.612,15.917-41.329,8.657-27.087,8.657-39.374,0-5.864-1.955-8.1A5.882,5.882,0,0,0,107.232,86.568Z" fill="#fff"/>
      <path id="Tracé_4" data-name="Tracé 4" d="M348.985,170.9a7.778,7.778,0,0,0-.559,3.351,5.016,5.016,0,0,0,.838,3.072,3.789,3.789,0,0,0,2.792,1.117,6.877,6.877,0,0,0,5.585-2.793q2.513-3.072,3.351-3.072,1.4,0,2.234,1.955a9.326,9.326,0,0,1,.838,4.189q.279,8.1-5.306,15.917-5.585,7.54-16.476,12.566-10.612,4.747-25.691,4.747-18.431,0-29.321-8.378-10.891-8.657-11.17-22.9,0-10.332,5.027-23.178l15.359-40.212a17.351,17.351,0,0,0,1.4-5.864,6.658,6.658,0,0,0-2.513-5.585,7.578,7.578,0,0,0-5.585-2.234q-5.306,0-10.891,5.027-5.306,4.747-8.657,15.638v-.559L252.644,180.4a24.614,24.614,0,0,0-.838,5.864,10.938,10.938,0,0,0,1.4,5.864,19.352,19.352,0,0,0,3.91,3.91,18.745,18.745,0,0,1,2.793,3.351,3.389,3.389,0,0,1,.279,3.072,9.284,9.284,0,0,1-5.585,5.306q-4.189,1.675-12.846,1.675H178.084q-7.26,0-10.612-2.234a5.526,5.526,0,0,1-2.234-6.423q1.117-3.351,5.864-5.864a25.588,25.588,0,0,0,6.981-5.306q2.793-3.072,4.747-9.774L225.277,40.491a13.783,13.783,0,0,0,.838-4.189,7.451,7.451,0,0,0-1.676-5.027,19.352,19.352,0,0,0-3.91-3.91,29.772,29.772,0,0,1-4.189-3.91,5.157,5.157,0,0,1-.279-4.468q1.676-6.423,17.593-11.17a115.653,115.653,0,0,1,33.231-4.747q16.2,0,23.736,6.144,7.819,6.144,7.819,16.755a37.732,37.732,0,0,1-1.955,12.008l-15.08,49.148Q292.3,72.885,304.305,67.3a63.348,63.348,0,0,1,26.529-5.585q17.034,0,27.367,10.332,10.612,10.332,10.612,26.808a53.54,53.54,0,0,1-2.792,17.034Z" fill="#fff"/>
      <path id="Tracé_5" data-name="Tracé 5" d="M641.63,170.9a7.779,7.779,0,0,0-.559,3.351,5.016,5.016,0,0,0,.838,3.072,3.789,3.789,0,0,0,2.793,1.117,6.877,6.877,0,0,0,5.585-2.793q2.513-3.072,3.351-3.072,1.4,0,2.234,1.955a9.326,9.326,0,0,1,.838,4.189q.279,8.1-5.306,15.917-5.585,7.54-16.476,12.566-10.612,4.747-25.691,4.747-18.431,0-29.321-8.378-10.891-8.657-11.17-22.9,0-10.332,5.026-23.178l15.359-40.212a17.352,17.352,0,0,0,1.4-5.864,6.658,6.658,0,0,0-2.513-5.585,7.577,7.577,0,0,0-5.585-2.234q-4.747,0-9.774,4.189t-8.936,13.125L548.36,170.9a7.78,7.78,0,0,0-.558,3.351,5.017,5.017,0,0,0,.838,3.072,3.789,3.789,0,0,0,2.793,1.117,6.877,6.877,0,0,0,5.585-2.793q2.513-3.072,3.351-3.072,1.4,0,2.234,1.955a9.326,9.326,0,0,1,.838,4.189q.279,8.1-5.306,15.917-5.585,7.54-16.476,12.566-10.612,4.747-25.691,4.747-18.431,0-29.321-8.378-10.891-8.657-11.17-22.9,0-10.332,5.027-23.178l15.359-40.212a17.349,17.349,0,0,0,1.4-5.864,6.658,6.658,0,0,0-2.513-5.585,7.578,7.578,0,0,0-5.585-2.234q-4.747,0-9.774,4.189-5.027,3.91-8.378,12.846L452.577,180.4a17.154,17.154,0,0,0-1.117,5.864,10.357,10.357,0,0,0,1.4,5.585,26.113,26.113,0,0,0,3.91,4.189,13.4,13.4,0,0,1,2.793,3.072,4.1,4.1,0,0,1,.279,3.351,8.345,8.345,0,0,1-5.306,5.306q-4.189,1.675-13.125,1.675H377.737q-7.261,0-10.332-2.234a5.944,5.944,0,0,1-2.513-6.423q1.117-3.351,5.864-5.864a25.588,25.588,0,0,0,6.981-5.306q2.793-3.072,4.747-9.774l24.853-80.7a10.876,10.876,0,0,0,.559-3.91,7.218,7.218,0,0,0-1.4-4.747,24.623,24.623,0,0,0-3.909-4.189,19.058,19.058,0,0,1-3.91-3.91,5.157,5.157,0,0,1-.279-4.468q1.676-6.423,17.593-11.17a109.693,109.693,0,0,1,33.231-5.027q13.683,0,21.5,7.54,8.1,7.54,7.819,20.665Q490,74,502.563,67.858a63.248,63.248,0,0,1,27.646-6.144q16.2,0,26.25,9.495Q566.79,80.424,567.907,95.5q12.008-18.989,25.691-26.25a60.9,60.9,0,0,1,29.88-7.54q17.034,0,27.367,10.332,10.612,10.332,10.612,26.808a53.541,53.541,0,0,1-2.792,17.034Z" fill="#fff"/>
      <path id="Tracé_6" data-name="Tracé 6" d="M813.955,61.714A22.9,22.9,0,0,1,833.5,71.768q7.54,9.774,7.54,26.808a107.389,107.389,0,0,1-5.306,31.835A206.02,206.02,0,0,1,802.505,195.2q-22.619,30.438-52.224,48.869Q720.96,262.5,691.64,262.5q-14.521,0-25.133-5.027-10.332-5.027-15.638-13.4a31.651,31.651,0,0,1-5.585-17.872,34.658,34.658,0,0,1,1.4-9.215,22.788,22.788,0,0,1,8.378-12.008,23.391,23.391,0,0,1,13.963-4.189q12.846,0,20.943,8.657,8.378,8.936,10.612,24.295,17.872-.838,32.951-15.359-14.242-2.513-21.223-9.495-6.7-7.26-9.215-22.34l-11.17-68.416q-.838-5.306-2.513-7.261a4.375,4.375,0,0,0-3.909-2.234,8.856,8.856,0,0,0-4.748,1.955q-2.513,1.955-3.63,1.955-2.234,0-2.234-4.747a28.159,28.159,0,0,1,1.4-8.378,54.807,54.807,0,0,1,18.711-26.808,48.847,48.847,0,0,1,31.834-11.17q17.872,0,26.25,10.612,8.657,10.612,11.171,32.672l8.377,61.435q.838,6.981,5.03,6.981,5.027,0,11.729-8.936,6.7-9.215,13.125-25.97a52.528,52.528,0,0,1-12.846-17.314,49.774,49.774,0,0,1-4.468-20.944,51.173,51.173,0,0,1,2.234-15.638q3.351-11.17,10.332-16.755A25.141,25.141,0,0,1,813.955,61.714Z" fill="#fff"/>
      <path id="Tracé_7" data-name="Tracé 7" d="M953.053,3.072q29.88,0,44.68,9.215,15.08,8.936,15.08,22.061a18.624,18.624,0,0,1-8.936,16.476q-8.657,5.585-22.9,5.585-13.125,0-20.385-6.423a20.4,20.4,0,0,1-7.26-15.917,25.024,25.024,0,0,1,3.63-12.287q-8.378,0-13.963,4.189-5.585,3.91-8.657,13.683A43.669,43.669,0,0,0,932.667,51.1q0,6.7,2.234,10.612a8.024,8.024,0,0,0,6.981,3.63h16.476q14.521,0,14.521,8.936a15.273,15.273,0,0,1-.558,3.351,14.666,14.666,0,0,1-6.981,9.215q-5.027,3.072-15.359,3.072H941.6L913.957,180.4a24.613,24.613,0,0,0-.838,5.864,10.938,10.938,0,0,0,1.4,5.864,19.349,19.349,0,0,0,3.909,3.91,18.746,18.746,0,0,1,2.793,3.351,3.389,3.389,0,0,1,.279,3.072,9.284,9.284,0,0,1-5.585,5.306q-4.189,1.675-12.846,1.675H839.4q-7.26,0-10.612-2.234a5.526,5.526,0,0,1-2.234-6.423q1.117-3.351,5.864-5.864a25.587,25.587,0,0,0,6.981-5.306q2.793-3.072,4.747-9.774l21.782-71.488a27.2,27.2,0,0,0,1.4-8.657q0-5.585-2.513-8.657a35.387,35.387,0,0,0-6.981-7.261q-3.072-2.513-4.747-4.189a7.494,7.494,0,0,1-1.4-4.468q-.279-5.306,3.63-7.54,4.189-2.234,15.638-2.234h6.981a51.577,51.577,0,0,1-1.955-13.963,45.851,45.851,0,0,1,2.513-14.521q5.306-14.242,22.619-24.016Q918.7,3.072,953.053,3.072Z" fill="#fff"/>
      <path id="Tracé_8" data-name="Tracé 8" d="M1063.357,61.714q37.978,0,55.85,15.359,18.151,15.359,18.151,40.212a89.314,89.314,0,0,1-2.234,18.71,94.956,94.956,0,0,1-19.827,40.212,99.836,99.836,0,0,1-35.744,26.529,111.759,111.759,0,0,1-45.518,9.215q-38.816,0-57.526-15.359-18.431-15.638-18.431-41.329A94.3,94.3,0,0,1,960.313,136a89.277,89.277,0,0,1,20.106-38.537A101.644,101.644,0,0,1,1017,71.209,114.743,114.743,0,0,1,1063.357,61.714Zm-.838,24.853q-5.864,0-12.566,10.612-6.423,10.332-15.359,39.374t-8.936,40.771q0,6.144,1.955,8.378a7.17,7.17,0,0,0,5.306,1.955q5.864.558,12.008-10.053,6.423-10.612,15.917-41.329,8.657-27.087,8.657-39.374,0-5.864-1.955-8.1A5.882,5.882,0,0,0,1062.519,86.568Z" fill="#fff"/>
      <path id="Tracé_9" data-name="Tracé 9" d="M1246.615,61.714q37.978,0,55.85,15.359,18.151,15.359,18.151,40.212a89.307,89.307,0,0,1-2.234,18.71,94.955,94.955,0,0,1-19.827,40.212,99.838,99.838,0,0,1-35.744,26.529,111.76,111.76,0,0,1-45.518,9.215q-38.816,0-57.526-15.359-18.431-15.638-18.431-41.329A94.293,94.293,0,0,1,1143.572,136a89.277,89.277,0,0,1,20.106-38.537,101.645,101.645,0,0,1,36.582-26.25A114.743,114.743,0,0,1,1246.615,61.714Zm-.838,24.853q-5.864,0-12.566,10.612-6.423,10.332-15.359,39.374t-8.936,40.771q0,6.144,1.955,8.378a7.169,7.169,0,0,0,5.306,1.955q5.864.558,12.008-10.053,6.423-10.612,15.917-41.329,8.657-27.087,8.657-39.374,0-5.864-1.955-8.1A5.882,5.882,0,0,0,1245.777,86.568Z" fill="#fff"/>
      <path id="Tracé_10" data-name="Tracé 10" d="M1477.9,169.226a15.4,15.4,0,0,0-.558,3.072,4.151,4.151,0,0,0,1.117,3.072,3.788,3.788,0,0,0,2.792,1.117,6.877,6.877,0,0,0,5.585-2.793q2.513-3.072,3.351-3.072,1.4,0,2.234,1.955a11.248,11.248,0,0,1,.838,4.468q.279,7.54-5.864,15.359a44.088,44.088,0,0,1-15.917,12.846,48.023,48.023,0,0,1-21.782,5.027q-13.963,0-24.295-5.306t-14.242-13.963a48.9,48.9,0,0,1-17.313,14.521,46.7,46.7,0,0,1-20.665,4.747,47.383,47.383,0,0,1-24.016-6.423,48.506,48.506,0,0,1-17.593-18.151,56.518,56.518,0,0,1-6.423-27.087,120.8,120.8,0,0,1,9.495-47.752q9.774-22.619,27.087-36.3A61.02,61.02,0,0,1,1401.111,60.6q12.008,0,20.385,2.793a48.784,48.784,0,0,1,15.638,8.378l9.495-31.276a13.787,13.787,0,0,0,.838-4.189,7.451,7.451,0,0,0-1.676-5.027,19.353,19.353,0,0,0-3.91-3.91,29.776,29.776,0,0,1-4.189-3.91,5.157,5.157,0,0,1-.279-4.468q1.675-6.423,17.593-11.17a115.653,115.653,0,0,1,33.231-4.747q16.2,0,23.736,6.144,7.819,6.144,7.819,16.755a37.73,37.73,0,0,1-1.955,12.008Zm-46.635-78.47a14.538,14.538,0,0,0-9.774-3.91q-8.1,0-15.917,12.008T1393.013,127.9q-4.747,17.034-4.468,30.718,0,15.359,10.053,15.359a7.954,7.954,0,0,0,6.143-2.792q2.513-3.072,4.747-9.774Z" fill="#fff"/>
    </g>
  </g>
</svg>
